<svg width="40" height="53" viewBox="0 0 40 53" fill="none" xmlns="http://www.w3.org/2000/svg">
<path d="M31.5562 25.1493C32.1479 25.9465 32.1479 27.0226 31.5562 27.8185C29.6924 30.3243 25.2208 35.4839 20.0002 35.4839C14.7796 35.4839 10.308 30.3243 8.44417 27.8185C8.15628 27.4368 8 26.9672 8 26.4839C8 26.0006 8.15628 25.531 8.44417 25.1493C10.308 22.6435 14.7796 17.4839 20.0002 17.4839C25.2208 17.4839 29.6924 22.6435 31.5562 25.1493V25.1493Z" stroke="#434447" stroke-width="2" stroke-linecap="round" stroke-linejoin="round"/>
<path d="M20.0009 30.3412C22.0693 30.3412 23.746 28.6143 23.746 26.4841C23.746 24.3539 22.0693 22.627 20.0009 22.627C17.9326 22.627 16.2559 24.3539 16.2559 26.4841C16.2559 28.6143 17.9326 30.3412 20.0009 30.3412Z" stroke="#434447" stroke-width="2" stroke-linecap="round" stroke-linejoin="round"/>
</svg>
