<svg width="24" height="30" viewBox="0 0 24 30" fill="none" xmlns="http://www.w3.org/2000/svg">
<path d="M22.56 15.0488C22.56 14.0905 22.49 13.1692 22.36 12.2847H12V17.5119H17.92C17.665 19.2011 16.89 20.6323 15.725 21.5905V24.9811H19.28C21.36 22.6286 22.56 19.1642 22.56 15.0488Z" fill="#4285F4"/>
<path d="M11.9999 28.2554C14.9699 28.2554 17.4599 27.0454 19.2799 24.9815L15.7249 21.5909C14.7399 22.4017 13.4799 22.8808 11.9999 22.8808C9.13492 22.8808 6.70992 20.5036 5.84492 17.3096H2.16992V20.8108C3.97992 25.2272 7.69992 28.2554 11.9999 28.2554Z" fill="#34A853"/>
<path d="M5.845 17.3096C5.625 16.4988 5.5 15.6327 5.5 14.7421C5.5 13.8514 5.625 12.9853 5.845 12.1745V8.67334H2.17C1.4 10.5564 0.999321 12.6347 1 14.7421C1 16.9227 1.425 18.9865 2.17 20.8108L5.845 17.3096Z" fill="#FBBC05"/>
<path d="M11.9999 6.60316C13.6149 6.60316 15.0649 7.28498 16.2049 8.62403L19.3599 4.74814C17.4549 2.56757 14.9649 1.22852 11.9999 1.22852C7.69992 1.22852 3.97992 4.25675 2.16992 8.67317L5.84492 12.1744C6.70992 8.98029 9.13492 6.60316 11.9999 6.60316Z" fill="#EA4335"/>
</svg>
