<svg width="179" height="46" viewBox="0 0 179 46" fill="none" xmlns="http://www.w3.org/2000/svg">
<path d="M19.8495 35.8765C19.1333 35.8765 18.6196 35.6274 18.3082 35.1292C18.028 34.6622 17.8879 34.1328 17.8879 33.5413C17.8879 32.7628 18.0747 32.0311 18.4483 31.3461C19.2579 29.8516 20.2698 28.2948 21.4841 26.6757C22.6985 25.0254 23.9595 23.3908 25.2672 21.7717C26.6061 20.1215 27.8204 18.5646 28.9102 17.1012C28.1629 17.0078 27.3689 16.9611 26.5282 16.9611C24.411 16.9611 22.1069 17.2258 19.616 17.7551C18.8375 17.9108 18.1058 18.0976 17.4208 18.3155C16.767 18.5024 16.1754 18.5958 15.6461 18.5958C15.3036 18.5958 15.0233 18.5335 14.8054 18.4089C14.712 18.3467 14.5874 18.2377 14.4317 18.082C14.3072 17.8952 14.2449 17.6772 14.2449 17.4281C14.2449 17.0856 14.5251 16.6964 15.0856 16.2605C15.6461 15.7935 16.7514 15.4043 18.4016 15.0929C19.4914 14.9061 20.7991 14.8127 22.3248 14.8127C23.6014 14.8127 24.9091 14.8905 26.248 15.0462C27.618 15.2019 28.8323 15.451 29.891 15.7935C31.0742 14.1433 31.9304 12.711 32.4597 11.4967C32.9891 10.2512 33.2537 9.19256 33.2537 8.32074C33.2537 6.9196 32.6621 5.9388 31.4789 5.37835C30.3269 4.81789 28.8479 4.53767 27.042 4.53767C25.8899 4.53767 24.6445 4.63108 23.3056 4.81789C21.9979 4.97358 20.659 5.2071 19.289 5.51846C19.0088 5.58074 18.3861 5.73642 17.4208 5.98551C16.4556 6.20347 15.3036 6.49926 13.9647 6.8729C12.657 7.2154 11.3025 7.62017 9.90139 8.08722C8.50025 8.55427 7.17695 9.05245 5.93149 9.58177C4.71717 10.1111 3.7208 10.6715 2.94239 11.2631C2.19512 11.8236 1.82148 12.3996 1.82148 12.9912C1.82148 13.4894 2.16398 13.972 2.84898 14.4391C2.91126 14.5013 2.94239 14.548 2.94239 14.5792C2.94239 14.6414 2.86455 14.6726 2.70887 14.6726C2.52205 14.6726 2.3508 14.6259 2.19512 14.5325C1.29216 13.9097 0.840684 13.0068 0.840684 11.8236C0.840684 10.9518 1.13648 10.0332 1.72807 9.06802C2.31966 8.10279 3.23819 7.27767 4.48365 6.59267C6.0716 5.68971 7.84638 4.88017 9.80798 4.16403C11.7696 3.41676 13.7934 2.79403 15.8796 2.29584C17.9969 1.76652 20.0674 1.37732 22.0913 1.12823C24.1152 0.848 25.9989 0.707886 27.7426 0.707886C30.0467 0.707886 31.8526 0.941409 33.1603 1.40845C34.4992 1.8755 35.4488 2.5138 36.0093 3.32335C36.5697 4.13289 36.85 5.03585 36.85 6.03221C36.85 7.37108 36.4452 8.78779 35.6356 10.2823C34.8572 11.7769 33.9854 13.1158 33.0202 14.2989C32.7711 14.6103 32.5064 14.9372 32.2262 15.2797C31.946 15.6222 31.6346 15.9803 31.2921 16.3539C31.7592 16.603 32.1795 16.9144 32.5531 17.288C32.7711 17.5683 32.8801 17.8018 32.8801 17.9886C32.8801 18.2066 32.7555 18.3155 32.5064 18.3155C32.3196 18.3155 32.1017 18.2377 31.8526 18.082C31.6346 17.9263 31.4011 17.8018 31.152 17.7084C30.934 17.615 30.685 17.5216 30.4047 17.4281C29.5329 18.4868 28.5988 19.6077 27.6024 20.7909C26.6061 21.9429 25.6564 23.0794 24.7535 24.2003C23.8505 25.3212 23.041 26.3643 22.3248 27.3295C21.92 27.89 21.4686 28.5127 20.9704 29.1977C20.4722 29.8827 20.0363 30.5989 19.6627 31.3461C19.3202 32.0934 19.1489 32.8563 19.1489 33.6347C19.1489 34.0706 19.2267 34.4598 19.3824 34.8023C19.5381 35.1448 19.8495 35.316 20.3165 35.316C20.5345 35.316 20.7836 35.2693 21.0638 35.1759L21.2506 35.1292C21.3752 35.1292 21.4374 35.1759 21.4374 35.2693C21.4374 35.425 21.3129 35.5496 21.0638 35.643C20.5345 35.7986 20.1297 35.8765 19.8495 35.8765ZM34.7935 32.4203C33.5792 32.4203 32.6607 32.1245 32.0379 31.533C31.4463 30.9102 31.1505 30.1162 31.1505 29.151C31.1505 28.5594 31.2284 27.9834 31.3841 27.4229C31.5397 26.8625 31.711 26.3643 31.8978 25.9284C31.6799 26.1464 31.4619 26.3487 31.2439 26.5356C31.0571 26.6912 30.9014 26.8158 30.7769 26.9092C30.6524 27.0026 30.5434 27.0493 30.45 27.0493C30.3254 27.0493 30.2632 26.9715 30.2632 26.8158C30.2632 26.5978 30.4188 26.3487 30.7302 26.0685C31.82 25.1656 32.6762 24.3716 33.299 23.6866C33.9217 22.9704 34.5755 22.3166 35.2605 21.725C36.4126 20.7286 37.6425 19.9502 38.9502 19.3897C40.2579 18.8293 41.5657 18.5491 42.8734 18.5491C44.2434 18.5491 45.3176 18.876 46.096 19.5299C46.8744 20.1837 47.2636 21.149 47.2636 22.4255C47.2636 23.1417 47.0457 23.9668 46.6098 24.9009C46.205 25.835 45.5511 26.8002 44.6482 27.7966C44.2745 28.2014 43.8542 28.6061 43.3872 29.0109C42.9201 29.3845 42.5153 29.6648 42.1728 29.8516C43.6985 29.6959 45.1308 29.1666 46.4697 28.2636C47.8085 27.3295 49.0073 26.411 50.0659 25.5081C50.2216 25.4146 50.3306 25.3679 50.3929 25.3679C50.5485 25.3679 50.6264 25.4458 50.6264 25.6015C50.6264 25.726 50.5485 25.8661 50.3929 26.0218C49.054 27.2984 47.6061 28.3726 46.0493 29.2444C44.5236 30.1162 42.8267 30.5366 40.9585 30.5055C39.8687 31.097 38.7945 31.5641 37.7359 31.9066C36.7084 32.2491 35.7276 32.4203 34.7935 32.4203ZM36.8952 31.1126C37.3311 31.1126 37.7982 31.0348 38.2964 30.8791C38.7945 30.7234 39.2927 30.521 39.7909 30.2719C39.6041 30.2719 39.4173 30.1785 39.2304 29.9917C39.0748 29.8049 38.9969 29.5558 38.9969 29.2444C38.9969 28.6217 39.2304 27.9834 39.6975 27.3295C40.1645 26.6757 40.7406 26.1152 41.4256 25.6482C42.1106 25.1811 42.78 24.9476 43.4339 24.9476C43.8075 24.9476 44.15 25.0566 44.4614 25.2745C44.8039 25.4613 44.9907 25.726 45.0218 26.0685C45.5511 25.4769 45.9092 24.8386 46.096 24.1536C46.314 23.4686 46.423 22.8303 46.423 22.2387C46.423 21.4292 46.1583 20.822 45.629 20.4172C45.1308 19.9813 44.4458 19.7634 43.574 19.7634C42.7333 19.7634 41.7992 20.0592 40.7717 20.6508C39.7753 21.2424 38.8257 22.0052 37.9227 22.9393C37.0509 23.8734 36.3192 24.8853 35.7276 25.9751C35.1671 27.0649 34.8869 28.1079 34.8869 29.1043C34.8869 30.4432 35.5563 31.1126 36.8952 31.1126ZM53.448 32.4203C52.2337 32.4203 51.3152 32.1245 50.6924 31.533C50.1008 30.9102 49.805 30.1162 49.805 29.151C49.805 28.5594 49.8829 27.9834 50.0386 27.4229C50.1942 26.8625 50.3655 26.3643 50.5523 25.9284C50.3344 26.1464 50.1164 26.3487 49.8984 26.5356C49.7116 26.6912 49.5559 26.8158 49.4314 26.9092C49.3069 27.0026 49.1979 27.0493 49.1045 27.0493C48.9799 27.0493 48.9176 26.9715 48.9176 26.8158C48.9176 26.5978 49.0733 26.3487 49.3847 26.0685C50.4745 25.1656 51.3307 24.3716 51.9534 23.6866C52.5762 22.9704 53.23 22.3166 53.915 21.725C55.0671 20.7286 56.297 19.9502 57.6047 19.3897C58.9124 18.8293 60.2202 18.5491 61.5279 18.5491C62.8979 18.5491 63.9721 18.876 64.7505 19.5299C65.5289 20.1837 65.9181 21.149 65.9181 22.4255C65.9181 23.1417 65.7002 23.9668 65.2643 24.9009C64.8595 25.835 64.2056 26.8002 63.3027 27.7966C62.929 28.2014 62.5087 28.6061 62.0417 29.0109C61.5746 29.3845 61.1698 29.6648 60.8273 29.8516C62.353 29.6959 63.7853 29.1666 65.1242 28.2636C66.463 27.3295 67.6618 26.411 68.7204 25.5081C68.8761 25.4146 68.9851 25.3679 69.0473 25.3679C69.203 25.3679 69.2809 25.4458 69.2809 25.6015C69.2809 25.726 69.203 25.8661 69.0473 26.0218C67.7085 27.2984 66.2606 28.3726 64.7038 29.2444C63.1781 30.1162 61.4812 30.5366 59.613 30.5055C58.5232 31.097 57.449 31.5641 56.3904 31.9066C55.3629 32.2491 54.3821 32.4203 53.448 32.4203ZM55.5497 31.1126C55.9856 31.1126 56.4527 31.0348 56.9508 30.8791C57.449 30.7234 57.9472 30.521 58.4454 30.2719C58.2586 30.2719 58.0718 30.1785 57.8849 29.9917C57.7293 29.8049 57.6514 29.5558 57.6514 29.2444C57.6514 28.6217 57.8849 27.9834 58.352 27.3295C58.819 26.6757 59.3951 26.1152 60.0801 25.6482C60.7651 25.1811 61.4345 24.9476 62.0884 24.9476C62.462 24.9476 62.8045 25.0566 63.1159 25.2745C63.4584 25.4613 63.6452 25.726 63.6763 26.0685C64.2056 25.4769 64.5637 24.8386 64.7505 24.1536C64.9685 23.4686 65.0775 22.8303 65.0775 22.2387C65.0775 21.4292 64.8128 20.822 64.2835 20.4172C63.7853 19.9813 63.1003 19.7634 62.2285 19.7634C61.3878 19.7634 60.4537 20.0592 59.4262 20.6508C58.4298 21.2424 57.4802 22.0052 56.5772 22.9393C55.7054 23.8734 54.9737 24.8853 54.3821 25.9751C53.8216 27.0649 53.5414 28.1079 53.5414 29.1043C53.5414 30.4432 54.2108 31.1126 55.5497 31.1126ZM81.6769 36.11C81.1788 35.6741 80.8051 35.1136 80.556 34.4286C80.3381 33.7748 80.2291 33.0275 80.2291 32.1868C80.2291 31.4084 80.3069 30.5833 80.4626 29.7115C80.6494 28.8397 80.883 27.9211 81.1632 26.9559C80.5716 27.7032 79.9022 28.466 79.1549 29.2444C78.4388 30.0228 77.7538 30.6923 77.0999 31.2527C75.7922 32.3114 74.3755 32.8407 72.8498 32.8407C71.6977 32.8407 70.7169 32.4826 69.9074 31.7665C69.0978 31.0192 68.6931 29.8672 68.6931 28.3103C68.6931 27.9056 68.7242 27.5164 68.7865 27.1427C68.8799 26.7691 68.9888 26.3954 69.1134 26.0218C68.9266 26.1775 68.7398 26.3332 68.5529 26.4889C68.3973 26.6445 68.2416 26.7846 68.0859 26.9092C67.9613 27.0026 67.8368 27.0493 67.7123 27.0493C67.5566 27.0493 67.4787 26.9715 67.4787 26.8158C67.4787 26.629 67.6344 26.411 67.9458 26.1619C68.3506 25.8194 68.802 25.3524 69.3002 24.7608C69.8295 24.1692 70.4056 23.5309 71.0283 22.8459C72.1181 21.6316 73.4414 20.6508 74.9982 19.9035C76.5861 19.1562 78.143 18.7826 79.6686 18.7826C80.9764 18.7826 81.926 19.0161 82.5176 19.4832C83.1404 19.9502 83.4517 20.5107 83.4517 21.1645C84.2301 19.5143 85.0397 17.9419 85.8804 16.4474C86.7522 14.9217 87.5617 13.5828 88.309 12.4308C89.0874 11.2787 89.7257 10.4225 90.2239 9.862C90.5664 9.45722 90.9867 9.16143 91.4849 8.97461C92.0142 8.78779 92.5436 8.69438 93.0729 8.69438C93.6022 8.69438 94.1159 8.77222 94.6141 8.9279C95.1123 9.08359 95.5482 9.33268 95.9219 9.67518C95.6105 9.862 95.1123 10.3135 94.4273 11.0296C93.7734 11.7146 93.0106 12.5709 92.1388 13.5984C91.2981 14.6259 90.4107 15.7312 89.4766 16.9144C88.5737 18.0976 87.7174 19.2808 86.9079 20.464C85.9426 21.8651 85.0241 23.3752 84.1523 24.9943C83.3116 26.6134 82.6266 28.1858 82.0973 29.7115C81.568 31.206 81.3033 32.5293 81.3033 33.6814C81.3033 34.6155 81.5057 35.3316 81.9105 35.8298C82.0039 35.9543 82.0039 36.0322 81.9105 36.0633C81.8171 36.1256 81.7392 36.1411 81.6769 36.11ZM74.2976 31.2527C74.8581 31.2527 75.6053 30.9725 76.5394 30.412C77.4735 29.8204 78.6256 28.8241 79.9956 27.4229C80.4315 26.987 80.774 26.6134 81.0231 26.302C81.3033 25.9595 81.5368 25.6326 81.7236 25.3212C81.8793 24.8853 82.035 24.465 82.1907 24.0602C82.3464 23.6554 82.5176 23.2507 82.7044 22.8459C82.5176 22.9704 82.3775 23.0327 82.2841 23.0327C82.035 23.0327 81.9105 22.8926 81.9105 22.6124C81.9105 22.4878 81.9572 22.3321 82.0506 22.1453C82.3619 21.616 82.5176 21.149 82.5176 20.7442C82.5176 20.0903 82.144 19.7634 81.3967 19.7634C80.9919 19.7634 80.4471 19.8879 79.7621 20.137C78.9836 20.4484 78.1741 20.931 77.3334 21.5849C76.5239 22.2076 75.761 22.9549 75.0449 23.8267C74.3599 24.6674 73.7994 25.5392 73.3635 26.4421C72.9587 27.3451 72.7564 28.2014 72.7564 29.0109C72.7564 29.6025 72.8653 30.1318 73.0833 30.5989C73.3324 31.0348 73.7372 31.2527 74.2976 31.2527Z" fill="#FFC4C4"/>
<path d="M98.549 33.5413C97.5215 33.5724 96.385 33.479 95.1396 33.261C93.8941 33.0742 92.6798 32.7317 91.4966 32.2335C90.3134 31.7353 89.2859 31.0815 88.4141 30.2719C87.5423 29.4624 86.9507 28.466 86.6393 27.2828C87.7602 28.2792 89.2859 29.0109 91.2164 29.4779C93.1468 29.9139 95.1084 30.1318 97.1012 30.1318C99.7478 30.1318 102.052 29.836 104.013 29.2444C104.574 29.0887 105.228 28.8397 105.975 28.4972C106.722 28.1235 107.454 27.7032 108.17 27.2361C108.886 26.7379 109.478 26.1931 109.945 25.6015C110.443 25.0099 110.692 24.4027 110.692 23.78C110.692 23.3441 110.552 22.9237 110.272 22.519C109.992 22.1142 109.54 21.7094 108.917 21.3046C108.544 21.0867 107.999 20.8532 107.283 20.6041C106.598 20.3238 105.85 20.0125 105.041 19.67C104.231 19.2963 103.469 18.876 102.752 18.4089C102.036 17.9108 101.46 17.3347 101.024 16.6809C100.62 15.9959 100.464 15.2175 100.557 14.3456C100.713 13.069 101.289 11.808 102.285 10.5626C103.313 9.28597 104.589 8.10279 106.115 7.01301C107.672 5.8921 109.338 4.9113 111.113 4.07062C112.918 3.22994 114.678 2.57607 116.39 2.10902C118.134 1.61084 119.675 1.36175 121.014 1.36175C122.384 1.36175 123.552 1.62641 124.517 2.15573C125.513 2.68505 125.933 3.588 125.778 4.8646C125.716 5.42505 125.326 6.09449 124.61 6.8729C123.925 7.65131 123.1 8.50756 122.135 9.44165C121.17 10.3757 120.204 11.3565 119.239 12.384C118.305 13.4115 117.527 14.4546 116.904 15.5133C116.312 16.5719 116.048 17.5994 116.11 18.5958C115.612 18.191 115.238 17.7395 114.989 17.2413C114.771 16.7431 114.662 16.2294 114.662 15.7001C114.662 14.9528 114.818 14.19 115.129 13.4115C115.441 12.6331 115.83 11.9014 116.297 11.2164C116.764 10.5003 117.2 9.89313 117.604 9.39495C118.321 8.52313 119.13 7.69801 120.033 6.9196C120.936 6.14119 121.855 5.42505 122.789 4.77119C122.508 4.36642 122.026 4.16403 121.341 4.16403C120.625 4.16403 119.815 4.31971 118.912 4.63108C118.04 4.94244 117.215 5.28494 116.437 5.65858C115.69 6.00108 115.16 6.26574 114.849 6.45256C113.51 7.16869 112.156 7.97824 110.786 8.8812C109.447 9.78416 108.201 10.7027 107.049 11.6368C105.928 12.5709 105.01 13.4427 104.294 14.2522C103.609 15.0306 103.235 15.6845 103.173 16.2138C103.11 16.8677 103.391 17.4281 104.013 17.8952C104.636 18.3311 105.446 18.7359 106.442 19.1095C107.438 19.4832 108.419 19.9191 109.384 20.4172C110.692 21.0711 111.642 21.8184 112.233 22.6591C112.825 23.4998 113.121 24.3716 113.121 25.2745C113.121 26.3954 112.701 27.5008 111.86 28.5906C111.019 29.6492 109.883 30.5366 108.45 31.2527C107.174 31.8755 105.835 32.3581 104.434 32.7006C103.064 33.0431 101.834 33.261 100.744 33.3544C99.6855 33.479 98.9538 33.5413 98.549 33.5413ZM117.655 32.794C116.658 32.794 115.896 32.4982 115.366 31.9066C114.837 31.315 114.572 30.4899 114.572 29.4312C114.572 28.4349 114.837 27.2673 115.366 25.9284L115.46 25.6949L114.619 26.4889C114.495 26.6134 114.354 26.6757 114.199 26.6757C114.043 26.6757 113.965 26.6134 113.965 26.4889C113.965 26.3332 114.074 26.1464 114.292 25.9284C115.102 25.2123 115.927 24.465 116.767 23.6866C117.639 22.877 118.371 22.1142 118.963 21.398C118.745 21.4915 118.511 21.5382 118.262 21.5382C118.013 21.5382 117.826 21.4759 117.702 21.3513C117.484 21.1957 117.375 20.9154 117.375 20.5107C117.375 20.1682 117.53 19.8101 117.842 19.4364C118.184 19.0628 118.869 18.7359 119.897 18.4557C120.115 18.3934 120.333 18.3467 120.551 18.3155C120.8 18.2844 121.033 18.2533 121.251 18.2221C122.247 16.821 123.119 15.5288 123.867 14.3456C124.614 13.1313 125.205 12.3218 125.641 11.917C125.828 11.699 126.155 11.5122 126.622 11.3565C127.12 11.2009 127.634 11.0763 128.163 10.9829C128.724 10.8895 129.16 10.8428 129.471 10.8428C130.499 10.8428 131.012 10.9362 131.012 11.123C131.012 11.2476 130.779 11.5434 130.312 12.0104C129.533 12.7577 128.615 13.6918 127.556 14.8127C126.529 15.9025 125.47 17.0856 124.38 18.3622C125.283 18.4868 126.108 18.7203 126.856 19.0628C127.634 19.4053 128.195 19.8412 128.537 20.3705C128.662 20.5262 128.724 20.713 128.724 20.931C128.724 21.1801 128.646 21.3046 128.49 21.3046C128.366 21.3046 128.226 21.2268 128.07 21.0711C127.416 20.4172 126.326 20.0903 124.801 20.0903C124.489 20.0903 124.162 20.1059 123.82 20.137C123.508 20.1682 123.182 20.2149 122.839 20.2771C121.78 21.6471 120.815 23.0171 119.943 24.3871C119.072 25.7571 118.449 27.0337 118.075 28.2169C117.888 28.7774 117.795 29.2911 117.795 29.7582C117.795 30.2252 117.904 30.6144 118.122 30.9258C118.34 31.206 118.667 31.3461 119.103 31.3461C119.383 31.3461 119.725 31.2683 120.13 31.1126C120.722 30.8947 121.407 30.5366 122.185 30.0384C122.964 29.5091 123.742 28.9175 124.52 28.2636C125.33 27.6098 126.077 26.9715 126.762 26.3487C127.478 25.726 128.07 25.1967 128.537 24.7608C129.004 24.3249 129.269 24.0758 129.331 24.0135C129.424 23.9201 129.502 23.8734 129.565 23.8734C129.689 23.8734 129.751 23.9668 129.751 24.1536C129.751 24.3716 129.658 24.574 129.471 24.7608C129.16 25.0721 128.677 25.5392 128.023 26.1619C127.401 26.7846 126.669 27.4852 125.828 28.2636C125.019 29.0109 124.147 29.727 123.213 30.412C122.279 31.097 121.329 31.6575 120.364 32.0934C119.43 32.5605 118.527 32.794 117.655 32.794ZM132.102 32.467C130.732 32.467 129.579 32.1401 128.645 31.4862C127.742 30.8012 127.291 29.8204 127.291 28.5439C127.291 27.1739 127.618 25.8973 128.272 24.7141C128.926 23.5309 129.797 22.5034 130.887 21.6316C131.977 20.7286 133.16 20.028 134.437 19.5299C135.745 19.0317 137.037 18.7826 138.313 18.7826C139.59 18.7826 140.54 19.0161 141.162 19.4832C141.785 19.9191 142.096 20.464 142.096 21.1178C142.096 21.7405 141.801 22.41 141.209 23.1261C140.648 23.8111 139.823 24.4183 138.734 24.9476C138.049 25.259 137.255 25.5392 136.352 25.7883C135.48 26.0062 134.717 26.1152 134.063 26.1152C133.565 26.1152 133.316 26.0374 133.316 25.8817C133.316 25.7571 133.534 25.6949 133.97 25.6949C134.375 25.6949 134.997 25.5859 135.838 25.3679C136.71 25.1188 137.55 24.7919 138.36 24.3871C139.263 23.889 139.901 23.3908 140.275 22.8926C140.648 22.3944 140.835 21.9429 140.835 21.5382C140.835 21.1645 140.68 20.8532 140.368 20.6041C140.088 20.355 139.683 20.2304 139.154 20.2304C138.656 20.2304 138.095 20.3705 137.473 20.6508C136.57 21.0555 135.636 21.725 134.67 22.6591C133.736 23.562 132.958 24.5584 132.335 25.6482C131.712 26.7379 131.401 27.781 131.401 28.7774C131.401 29.4624 131.588 30.0384 131.961 30.5055C132.366 30.9725 132.958 31.206 133.736 31.206C134.546 31.206 135.48 30.9569 136.538 30.4587C137.597 29.9294 138.671 29.2911 139.761 28.5439C140.851 27.7654 141.863 26.987 142.797 26.2086C143.731 25.4302 144.478 24.7763 145.039 24.247C145.226 24.0602 145.366 23.9668 145.459 23.9668C145.552 23.9668 145.599 24.0446 145.599 24.2003C145.599 24.4183 145.506 24.6051 145.319 24.7608C144.136 25.8506 142.844 26.987 141.442 28.1702C140.072 29.3534 138.593 30.3653 137.006 31.206C135.449 32.0156 133.814 32.4359 132.102 32.467ZM137.886 44.9839C137.668 44.6725 137.45 44.2833 137.232 43.8163C136.983 43.3492 136.858 42.7109 136.858 41.9014C136.858 41.2475 137.092 40.2979 137.559 39.0524C138.026 37.8381 138.648 36.4525 139.427 34.8957C140.174 33.3389 141.03 31.7353 141.996 30.0851C142.93 28.4037 143.879 26.8158 144.845 25.3212C144.253 25.9128 143.646 26.4421 143.023 26.9092C142.899 27.0026 142.805 27.0493 142.743 27.0493C142.649 27.0493 142.603 26.987 142.603 26.8625C142.603 26.8002 142.649 26.6912 142.743 26.5356C142.805 26.3799 142.93 26.2242 143.117 26.0685C143.739 25.5392 144.487 24.8231 145.358 23.9201C146.23 22.986 147.133 21.9274 148.067 20.7442C148.783 19.8412 149.406 19.0472 149.935 18.3622C150.465 17.6461 150.885 17.1324 151.196 16.821C151.539 16.4785 151.85 16.2138 152.131 16.027C152.411 15.8402 152.707 15.7468 153.018 15.7468C153.36 15.7468 153.75 15.8402 154.186 16.027C154.653 16.1827 155.088 16.4785 155.493 16.9144C155.151 17.3192 154.699 17.8952 154.139 18.6425C153.578 19.3897 153.049 20.1059 152.551 20.7909C153.267 19.9502 154.217 19.2029 155.4 18.5491C156.583 17.8952 157.688 17.5683 158.716 17.5683C159.65 17.5683 160.397 17.8641 160.958 18.4557C161.518 19.0472 161.798 19.8257 161.798 20.7909C161.798 21.8495 161.503 23.0171 160.911 24.2937C160.319 25.5392 159.525 26.7535 158.529 27.9367C157.315 29.369 155.96 30.5366 154.466 31.4395C153.002 32.3425 151.663 32.794 150.449 32.794C149.577 32.794 148.892 32.5449 148.394 32.0467C147.896 31.5485 147.647 30.8168 147.647 29.8516C147.647 28.8552 147.865 27.781 148.301 26.629C147.46 27.6876 146.557 28.9019 145.592 30.2719C144.658 31.6419 143.739 33.0431 142.836 34.4753C141.933 35.9076 141.124 37.2776 140.408 38.5854C139.66 39.8931 139.069 41.0451 138.633 42.0415C138.197 43.0379 137.979 43.7851 137.979 44.2833C137.979 44.5324 138.01 44.6881 138.072 44.7504C138.166 44.8749 138.181 44.9528 138.119 44.9839C138.026 45.0462 137.948 45.0462 137.886 44.9839ZM150.216 32.2802C151.119 32.2802 152.006 32 152.878 31.4395C153.781 30.848 154.59 30.0851 155.306 29.151C156.023 28.2169 156.599 27.2206 157.035 26.1619C157.47 25.1033 157.688 24.1069 157.688 23.1728C157.688 22.3321 157.486 21.6783 157.081 21.2112C156.708 20.7442 156.178 20.5107 155.493 20.5107C154.684 20.5107 153.765 20.8687 152.738 21.5849C151.71 22.2699 150.776 23.2662 149.935 24.574C149.313 25.4769 148.861 26.3954 148.581 27.3295C148.332 28.2325 148.207 29.042 148.207 29.7582C148.207 30.6611 148.394 31.315 148.768 31.7198C149.141 32.0934 149.624 32.2802 150.216 32.2802ZM164.851 32.5138C163.606 32.5138 162.516 32.2802 161.582 31.8132C160.617 31.315 159.916 30.412 159.48 29.1043C159.449 28.9798 159.496 28.9019 159.62 28.8708C159.714 28.8397 159.776 28.9019 159.807 29.0576C160.119 29.7426 160.523 30.2252 161.022 30.5055C161.52 30.7857 162.065 30.9258 162.656 30.9258C163.653 30.9258 164.524 30.63 165.272 30.0384C166.05 29.4468 166.735 28.6995 167.327 27.7966C167.949 26.8936 168.494 25.9751 168.961 25.041C169.46 24.0758 169.927 23.2507 170.362 22.5657C171.047 21.4136 171.857 20.3705 172.791 19.4364C173.756 18.5024 174.628 17.9263 175.407 17.7084C175.22 17.615 174.986 17.5683 174.706 17.5683C173.928 17.5683 173.071 17.8018 172.137 18.2688C171.203 18.7359 170.254 19.343 169.288 20.0903C168.354 20.8376 167.436 21.6316 166.533 22.4723C165.661 23.2818 164.851 24.0446 164.104 24.7608C163.388 25.4458 162.812 25.9907 162.376 26.3954C162.127 26.6134 161.94 26.7224 161.816 26.7224C161.691 26.7224 161.629 26.6601 161.629 26.5356C161.629 26.3487 161.707 26.1775 161.862 26.0218C162.796 25.2123 163.762 24.3093 164.758 23.3129C165.754 22.2854 166.766 21.3046 167.794 20.3705C168.821 19.4053 169.864 18.6113 170.923 17.9886C171.982 17.3659 173.056 17.0545 174.146 17.0545C174.27 17.0545 174.379 17.0545 174.473 17.0545C174.597 17.0545 174.722 17.0701 174.846 17.1012C175.189 17.1324 175.5 17.2258 175.78 17.3814C176.092 17.5371 176.185 17.6461 176.06 17.7084C175.344 18.0197 174.784 18.6425 174.379 19.5766C173.974 20.5107 173.601 21.6004 173.258 22.8459C172.916 24.0913 172.495 25.3524 171.997 26.629C171.53 27.9056 170.845 29.042 169.942 30.0384C170.378 29.8827 171.063 29.5247 171.997 28.9642C172.931 28.4037 173.959 27.7187 175.08 26.9092C176.201 26.0685 177.244 25.15 178.209 24.1536C178.333 24.0291 178.458 23.9668 178.583 23.9668C178.738 23.9668 178.816 24.0446 178.816 24.2003C178.816 24.3249 178.754 24.4494 178.629 24.574C177.789 25.3835 176.854 26.2553 175.827 27.1894C174.799 28.0924 173.679 28.9486 172.464 29.7582C171.281 30.5677 170.051 31.2372 168.775 31.7665C167.498 32.2647 166.19 32.5138 164.851 32.5138Z" fill="white"/>
</svg>
